<?xml version="1.0" standalone="no"?>
<!DOCTYPE svg PUBLIC "-//W3C//DTD SVG 20010904//EN"
 "http://www.w3.org/TR/2001/REC-SVG-20010904/DTD/svg10.dtd">
<svg version="1.0" xmlns="http://www.w3.org/2000/svg"
 width="377.000000pt" height="377.000000pt" viewBox="0 0 377.000000 377.000000"
 preserveAspectRatio="xMidYMid meet">
<metadata>
Created by potrace 1.11, written by Peter Selinger 2001-2013
</metadata>
<g transform="translate(0.000000,377.000000) scale(0.100000,-0.100000)"
fill="#000000" stroke="none">
<path d="M1597 3755 c6 -17 5 -18 -9 -7 -11 9 -18 10 -23 2 -3 -5 -19 -10 -36
-10 -16 0 -29 -5 -29 -12 0 -6 -3 -8 -7 -5 -3 4 -12 2 -20 -5 -11 -9 -12 -7
-7 8 5 18 5 18 -10 0 -8 -10 -19 -15 -25 -11 -6 3 -11 0 -11 -7 0 -10 -2 -11
-8 0 -5 7 -16 10 -25 6 -9 -3 -14 -10 -11 -15 3 -5 -3 -6 -12 -2 -13 5 -15 3
-9 -8 8 -12 6 -12 -8 0 -11 9 -17 10 -17 2 0 -7 -10 -10 -26 -7 -20 4 -23 2
-15 -8 9 -11 5 -13 -16 -10 -16 1 -36 -5 -47 -14 -15 -13 -18 -14 -12 -2 6 11
4 11 -6 -1 -7 -9 -23 -14 -37 -12 -18 2 -22 0 -17 -12 3 -9 2 -13 -4 -10 -6 3
-10 0 -10 -7 0 -9 -3 -9 -10 2 -8 13 -14 8 -12 -11 1 -3 -11 -4 -25 -1 -20 4
-24 2 -18 -8 6 -10 4 -12 -8 -7 -10 3 -17 2 -17 -4 0 -6 -4 -7 -10 -4 -5 3
-10 1 -10 -4 0 -6 -7 -11 -16 -11 -8 0 -13 -4 -10 -9 4 -5 -2 -8 -11 -7 -18 3
-44 -15 -37 -25 2 -3 -8 -5 -22 -3 -19 2 -24 -1 -20 -12 3 -8 2 -12 -3 -9 -5
3 -13 0 -16 -6 -4 -5 -14 -8 -22 -5 -8 3 -11 2 -8 -4 7 -11 -29 -32 -40 -22
-5 4 -5 1 -1 -5 7 -12 -5 -18 -27 -14 -5 1 -6 -3 -2 -9 3 -5 2 -10 -2 -10 -5
0 -18 -7 -29 -16 -10 -8 -13 -12 -5 -8 9 5 12 3 7 -5 -4 -6 -11 -9 -16 -6 -5
3 -20 -5 -32 -17 -13 -13 -26 -22 -30 -21 -5 2 -8 -5 -8 -15 0 -13 -2 -14 -9
-4 -7 11 -10 10 -15 -3 -3 -9 -4 -20 -1 -25 3 -4 -3 -7 -13 -6 -9 0 -16 -4
-15 -11 2 -8 -4 -10 -14 -6 -11 4 -14 3 -9 -5 4 -7 1 -12 -8 -12 -9 0 -16 -7
-16 -17 0 -9 -3 -14 -6 -10 -8 7 -34 -17 -34 -32 0 -6 -3 -10 -7 -8 -5 1 -9
-2 -11 -8 -2 -5 -13 -15 -25 -22 -12 -6 -22 -17 -22 -25 -1 -7 -7 -12 -15 -10
-11 3 -11 0 1 -14 8 -10 9 -15 3 -11 -13 7 -66 -37 -57 -47 4 -3 1 -6 -6 -6
-7 0 -9 -4 -6 -10 3 -5 1 -10 -4 -10 -6 0 -11 -5 -11 -11 0 -6 -11 -20 -24
-30 -14 -11 -33 -37 -42 -59 -10 -21 -22 -36 -27 -33 -6 4 -8 -3 -5 -15 4 -15
2 -22 -8 -22 -8 0 -13 -6 -11 -12 1 -7 -4 -12 -11 -10 -8 1 -10 -2 -7 -8 4 -6
0 -19 -7 -28 -23 -26 -33 -46 -20 -38 8 5 10 2 6 -8 -3 -9 -10 -14 -14 -11
-11 7 -22 -43 -13 -58 4 -7 0 -7 -10 2 -15 12 -17 10 -17 -18 0 -17 -6 -34
-13 -37 -8 -3 -13 -18 -12 -34 1 -22 -1 -27 -10 -20 -9 8 -12 4 -9 -16 2 -18
-1 -24 -11 -20 -11 4 -12 0 -5 -20 6 -14 6 -23 1 -20 -5 3 -12 -1 -15 -10 -4
-9 -2 -13 5 -8 6 3 3 -5 -6 -20 -10 -14 -13 -26 -9 -26 5 0 2 -5 -6 -10 -10
-6 -11 -10 -2 -10 6 0 12 -5 12 -11 0 -5 -4 -7 -10 -4 -6 3 -10 -5 -10 -19 0
-20 -4 -24 -18 -19 -16 7 -16 6 1 -11 19 -19 23 -31 7 -21 -6 4 -10 -8 -10
-29 0 -28 -4 -36 -17 -36 -13 0 -15 -2 -5 -8 9 -7 10 -15 3 -35 -7 -18 -7 -27
2 -31 9 -3 9 -5 -1 -5 -10 -1 -10 -6 -1 -22 8 -15 8 -19 0 -15 -7 5 -11 -4
-11 -24 0 -17 -4 -29 -8 -26 -4 2 -9 -76 -9 -175 -1 -119 2 -177 9 -173 6 4 6
-1 -1 -14 -14 -26 -14 -42 0 -42 5 0 7 5 3 12 -4 7 -3 8 4 4 6 -4 9 -13 6 -21
-4 -8 -9 -13 -13 -11 -4 3 -7 -6 -7 -19 0 -16 4 -21 16 -17 13 5 13 3 1 -11
-10 -13 -10 -17 -1 -17 9 0 9 -4 -1 -17 -11 -14 -11 -15 -1 -9 10 6 13 3 10
-10 -2 -11 3 -25 12 -32 8 -8 9 -11 3 -7 -8 4 -13 0 -13 -9 0 -9 8 -16 18 -17
14 0 14 -2 -3 -9 -11 -5 -14 -9 -6 -9 10 -1 11 -4 2 -15 -9 -11 -9 -16 0 -22
8 -5 9 -3 4 6 -6 9 -4 11 4 5 8 -4 10 -17 7 -31 -4 -13 -3 -24 2 -24 4 0 9
-10 10 -23 2 -12 4 -31 6 -42 2 -11 4 -24 5 -28 0 -5 5 -6 10 -3 5 4 7 -4 3
-16 -3 -13 -1 -19 5 -15 6 4 13 0 16 -8 4 -10 1 -12 -11 -8 -15 6 -14 3 2 -15
11 -12 14 -22 8 -22 -7 0 -12 -5 -12 -12 0 -6 3 -8 6 -5 4 3 15 2 25 -4 15 -8
17 -14 9 -29 -13 -24 -13 -33 0 -25 6 3 10 -3 10 -15 0 -12 4 -19 9 -16 5 3
12 -1 15 -10 4 -10 2 -13 -7 -8 -8 6 -8 3 1 -9 8 -9 10 -22 6 -28 -4 -8 -3 -9
4 -5 11 6 16 -6 13 -27 0 -4 4 -7 10 -7 5 0 7 -4 4 -10 -3 -5 2 -10 12 -10 15
0 16 -2 3 -10 -10 -6 -11 -10 -2 -10 6 0 12 -7 12 -15 0 -7 8 -19 18 -24 11
-7 12 -11 4 -11 -18 0 11 -30 30 -30 10 0 9 -3 -2 -10 -8 -5 -10 -10 -4 -10
11 0 28 -36 25 -53 -1 -5 3 -6 9 -2 5 3 10 1 10 -5 0 -6 5 -8 12 -4 8 5 9 2 5
-9 -3 -10 -2 -17 3 -17 5 0 7 -7 4 -15 -5 -11 -2 -13 12 -8 13 5 16 3 11 -10
-4 -11 -1 -17 8 -17 13 0 31 -36 27 -52 -1 -4 6 -4 15 -1 13 5 15 2 10 -11 -6
-14 -3 -17 8 -12 9 3 13 2 10 -4 -3 -6 1 -13 9 -16 9 -3 16 -13 16 -21 0 -8 4
-11 10 -8 9 6 14 -8 11 -27 -1 -8 15 -12 32 -9 4 0 6 -5 5 -11 -2 -7 3 -12 10
-10 6 1 11 -2 10 -7 -4 -11 58 -71 72 -71 5 0 9 -6 7 -12 -1 -7 6 -12 15 -12
10 1 16 -2 13 -6 -5 -8 29 -52 39 -51 19 2 27 0 23 -6 -3 -5 1 -14 9 -21 10
-9 14 -10 14 -1 0 7 8 2 19 -9 10 -12 21 -19 25 -15 3 3 6 -2 6 -12 0 -10 3
-15 7 -12 3 4 12 -1 20 -11 9 -10 11 -11 7 -2 -7 13 -6 13 10 1 13 -11 14 -16
4 -23 -9 -6 -5 -7 10 -3 13 4 22 2 22 -5 0 -6 4 -9 8 -6 5 3 15 -4 22 -15 8
-10 21 -19 29 -19 7 0 20 -8 28 -17 8 -10 12 -13 8 -6 -4 9 3 8 21 -2 15 -8
32 -11 38 -8 6 4 4 -2 -4 -12 -8 -10 -10 -16 -4 -12 7 4 25 -3 40 -15 23 -18
26 -19 14 -4 -14 18 -14 19 7 7 13 -6 23 -15 23 -19 0 -4 10 -8 22 -9 11 -1
24 -7 28 -13 4 -7 10 -11 14 -11 20 3 26 0 20 -11 -5 -9 -2 -9 9 1 12 9 17 10
17 2 0 -7 4 -10 9 -7 5 3 12 -1 15 -9 5 -13 10 -14 27 -4 17 9 20 8 14 -2 -6
-9 -2 -11 13 -7 15 4 19 2 15 -9 -6 -16 17 -14 29 2 5 6 8 5 8 -2 0 -7 7 -13
15 -13 8 0 15 -6 16 -12 0 -7 4 -4 9 7 7 16 9 16 9 4 1 -9 8 -20 17 -23 8 -3
12 -2 9 4 -3 6 -1 10 4 10 6 0 11 -4 11 -10 0 -5 5 -10 11 -10 5 0 7 6 4 13
-4 6 0 4 8 -5 8 -10 17 -15 21 -11 11 12 35 12 33 0 -3 -14 24 -16 40 -4 9 6
15 4 19 -6 3 -9 12 -18 20 -21 8 -3 13 -2 10 2 -7 12 55 9 74 -3 8 -5 28 -10
45 -11 21 -2 25 0 15 6 -8 6 -10 10 -4 10 5 0 15 -5 22 -12 8 -8 15 -8 28 3
12 9 15 10 10 2 -4 -7 -3 -13 1 -13 5 0 15 6 22 13 10 9 12 9 7 0 -8 -15 81
-16 90 -2 3 5 11 9 17 9 7 0 6 -4 -3 -10 -12 -8 -11 -10 7 -10 12 0 24 6 26
13 4 9 6 9 6 0 1 -7 6 -13 12 -13 5 0 8 4 5 8 -3 5 1 9 9 9 8 0 12 -4 9 -9 -3
-4 0 -8 5 -8 6 0 11 6 11 13 0 8 4 7 10 -3 9 -13 10 -13 10 0 0 13 1 13 10 0
8 -13 10 -12 10 3 0 9 4 17 10 17 5 0 7 -6 4 -13 -3 -8 2 -14 10 -14 8 0 13 4
10 9 -4 6 49 12 59 6 1 -1 13 4 26 11 19 11 22 11 15 -1 -6 -10 -4 -11 7 -2 8
5 24 9 37 8 13 -1 26 5 29 13 4 10 8 11 13 3 3 -6 14 -8 23 -4 9 3 14 10 11
15 -3 5 7 4 21 -1 19 -7 24 -7 19 2 -5 7 -2 9 7 6 8 -3 23 0 33 7 10 8 25 11
34 8 11 -5 13 -3 7 8 -7 11 -5 11 10 -1 17 -13 18 -13 13 1 -3 9 -1 16 5 16 7
0 23 3 36 7 18 6 22 5 17 -5 -4 -8 -1 -6 7 3 8 10 16 15 20 12 6 -7 47 15 65
36 7 8 11 9 7 3 -3 -7 -1 -13 4 -13 6 0 11 4 11 9 0 6 9 8 19 6 11 -2 27 5 37
16 9 10 27 19 38 19 18 0 19 2 6 11 -12 9 -11 10 8 6 14 -3 20 -1 15 6 -4 6 2
8 15 5 12 -4 20 -2 16 3 -10 17 7 31 22 18 11 -9 15 -8 20 5 3 9 12 16 20 16
8 0 14 7 14 16 0 13 3 14 14 5 11 -9 16 -9 22 0 5 8 3 10 -7 5 -8 -4 -3 2 11
14 26 22 70 44 82 42 4 -1 5 5 2 13 -4 10 0 15 10 15 10 0 27 11 40 25 13 13
26 22 29 18 4 -3 7 -1 7 5 0 6 9 14 20 17 11 4 18 11 15 16 -4 5 -1 9 5 9 6 0
8 5 4 12 -4 7 -3 8 5 4 13 -9 165 137 154 148 -4 3 1 6 10 6 11 0 14 5 10 15
-3 9 -2 15 3 14 20 -3 34 2 34 12 0 5 -5 7 -12 3 -7 -4 -8 -3 -4 4 4 7 14 12
22 12 8 0 13 6 11 13 -1 6 4 11 12 9 8 -2 11 3 8 13 -4 9 -1 15 8 15 8 0 12 8
10 19 -2 13 1 18 10 15 7 -3 16 0 21 7 5 8 3 10 -5 4 -7 -4 -5 4 4 19 10 14
22 26 27 26 5 0 7 4 4 9 -3 5 1 11 9 15 8 3 15 13 15 22 0 19 34 65 44 59 3
-3 2 1 -4 7 -5 7 -10 17 -10 22 0 7 4 6 8 -1 5 -8 13 -9 22 -3 9 6 10 10 3 10
-8 0 -7 9 4 30 9 18 19 27 26 23 8 -4 8 -1 -1 9 -10 13 -10 17 3 22 8 3 14 9
13 13 -5 14 24 73 36 73 6 0 4 5 -4 10 -8 5 -10 10 -4 10 10 0 40 76 36 93 -1
4 5 10 13 13 8 4 15 10 15 16 0 5 -6 6 -12 3 -7 -4 -4 1 6 9 13 10 15 16 7 16
-10 0 -11 3 -2 14 6 7 8 22 4 31 -4 12 -3 16 4 12 6 -4 13 0 17 8 3 8 0 15 -7
15 -8 0 -8 3 2 9 8 5 11 16 8 25 -4 9 -2 16 3 16 6 0 9 6 8 13 -2 6 3 11 10 9
8 -1 11 2 7 8 -3 6 -11 8 -16 5 -5 -4 -9 -2 -9 3 0 6 7 13 16 16 11 4 15 14
11 31 -2 14 0 28 5 31 5 4 5 10 0 17 -11 14 -1 49 13 47 5 0 10 6 11 15 1 8
-2 13 -7 9 -5 -3 -6 -11 -2 -17 4 -7 0 -6 -10 2 -18 15 -23 26 -7 16 6 -3 10
3 10 14 0 12 6 21 13 21 8 0 8 3 -2 9 -12 8 -12 12 -2 24 8 10 9 17 1 22 -7 4
-7 12 0 25 13 25 13 33 -2 24 -7 -5 -8 -3 -2 7 5 8 10 25 11 39 3 20 1 22 -7
10 -5 -8 -10 -10 -10 -4 0 6 3 14 8 18 10 11 9 186 -2 186 -5 0 -3 6 3 14 10
12 8 19 -8 35 l-21 21 23 0 c16 0 18 3 8 9 -7 5 -11 14 -7 20 5 7 1 8 -10 4
-14 -5 -15 -3 -5 15 9 17 9 22 -1 22 -9 0 -9 3 2 10 11 7 12 10 2 10 -9 0 -11
7 -7 21 5 14 3 19 -3 15 -6 -4 -8 2 -4 16 4 16 2 19 -9 13 -12 -8 -12 -6 0 8
10 13 10 17 1 17 -9 0 -9 4 1 17 10 11 10 14 2 9 -12 -7 -18 5 -14 28 1 5 -4
13 -11 17 -10 7 -10 9 0 9 6 0 12 5 12 12 0 6 -3 8 -7 5 -12 -13 -30 37 -20
57 6 13 6 16 -2 12 -7 -5 -11 1 -11 14 0 14 -4 19 -12 14 -10 -6 -10 -4 0 8
10 13 10 18 1 24 -8 5 -9 3 -4 -6 5 -8 4 -11 -2 -7 -6 4 -9 20 -7 37 2 17 0
29 -5 26 -11 -7 -23 22 -15 35 3 5 2 9 -3 9 -4 0 -13 11 -20 25 -6 14 -7 22
-1 19 14 -9 -15 39 -32 52 -8 7 -12 16 -8 20 4 4 0 13 -10 21 -11 10 -12 12
-2 8 10 -4 9 -2 -2 8 -10 8 -15 17 -11 20 3 4 1 7 -6 7 -7 0 -10 4 -7 8 3 5
-4 15 -14 22 -15 11 -17 17 -8 27 9 11 8 13 -3 11 -9 -2 -13 4 -11 16 2 10 0
16 -5 13 -4 -3 -14 1 -21 9 -10 11 -10 14 0 14 9 0 9 3 -2 9 -8 6 -18 7 -22 5
-4 -3 -5 2 -2 10 4 10 1 16 -7 16 -7 0 -10 3 -6 6 5 5 -10 27 -40 59 -7 8 -13
18 -13 24 0 6 -7 11 -15 11 -8 0 -15 7 -15 16 0 18 -23 44 -39 44 -10 0 -15
14 -12 33 0 4 -5 7 -13 7 -8 0 -18 10 -21 21 -6 17 -9 19 -16 8 -6 -10 -9 -8
-9 9 0 12 -4 22 -9 22 -6 0 -37 26 -70 58 -79 75 -88 82 -95 75 -3 -4 -6 1 -6
11 0 9 -3 15 -7 13 -11 -7 -33 19 -25 27 3 4 -1 4 -11 0 -12 -4 -17 -1 -17 12
0 16 -2 17 -10 4 -8 -13 -10 -12 -10 3 0 10 -4 15 -10 12 -5 -3 -10 -1 -10 5
0 6 -4 8 -10 5 -5 -3 -10 -1 -10 5 0 6 -5 8 -10 5 -6 -4 -9 -1 -8 7 2 7 -3 12
-11 10 -9 -2 -11 3 -7 14 5 14 4 15 -9 4 -10 -8 -15 -9 -15 -1 0 6 -7 11 -16
11 -9 0 -12 5 -8 12 4 6 3 8 -4 4 -6 -3 -17 1 -25 9 -9 8 -20 15 -26 15 -6 0
-11 4 -11 10 0 5 -7 7 -15 4 -8 -4 -15 -1 -15 4 0 6 -9 9 -21 7 -17 -3 -19 -1
-9 10 9 11 7 12 -11 8 -17 -5 -20 -3 -14 7 6 10 4 12 -8 7 -10 -4 -17 -2 -17
5 0 7 -5 6 -15 -2 -13 -11 -14 -10 -8 5 5 15 3 17 -11 12 -10 -4 -15 -3 -11 3
4 6 -6 8 -24 6 -25 -3 -29 0 -25 17 3 15 1 18 -8 9 -8 -8 -18 -7 -40 4 -16 8
-33 12 -38 9 -5 -3 -12 0 -16 6 -5 8 -3 9 6 4 9 -5 11 -4 6 4 -6 9 -11 9 -21
1 -9 -8 -14 -6 -19 6 -5 13 -10 14 -18 6 -7 -7 -16 -5 -31 8 -16 15 -24 17
-40 9 -15 -9 -18 -8 -12 1 6 9 0 11 -24 8 -23 -3 -31 -1 -31 11 0 14 -1 14
-10 1 -8 -12 -10 -12 -10 -1 0 8 -3 11 -7 8 -3 -4 -13 -1 -21 6 -13 10 -15 9
-9 -7 7 -17 6 -17 -9 -5 -9 8 -36 14 -60 14 -24 0 -47 5 -51 9 -5 5 -2 6 7 1
9 -5 12 -5 7 1 -13 14 -390 16 -381 2 5 -8 3 -8 -7 -2 -23 15 -98 12 -92 -3 7
-19 -8 -16 -23 5 -13 16 -14 16 -7 -3z m93 -9 c-7 -7 -13 -7 -20 0 -6 6 -3 10
10 10 13 0 16 -4 10 -10z m-1665 -1695 c3 -5 2 -12 -3 -15 -5 -3 -9 1 -9 9 0
17 3 19 12 6z m2636 -1874 c-10 -9 -11 -8 -5 6 3 10 9 15 12 12 3 -3 0 -11 -7
-18z m-951 -151 c0 -2 -7 -7 -16 -10 -8 -3 -12 -2 -9 4 6 10 25 14 25 6z"/>
<path d="M2126 3758 c3 -5 10 -6 15 -3 13 9 11 12 -6 12 -8 0 -12 -4 -9 -9z"/>
</g>
</svg>
