<?xml version="1.0"?>
<svg xmlns="http://www.w3.org/2000/svg" height="512px" viewBox="0 0 480 480" width="512px"><path d="m448 48h-96v-8c0-22.089844-17.910156-40-40-40s-40 17.910156-40 40v8h-80v16h32.59375c-1.90625 3.324219-3.199219 6.964844-3.824219 10.742188l-.882812 5.257812h-35.886719c-4.417969 0-8 3.582031-8 8v8h41.222656l-1.109375 6.6875c-.386719 2.320312.265625 4.691406 1.785157 6.484375 1.519531 1.792969 3.75 2.828125 6.101562 2.828125h176c2.351562 0 4.582031-1.035156 6.101562-2.828125 1.519532-1.792969 2.171876-4.164063 1.785157-6.484375l-1.109375-6.6875h25.222656v280h-48c-4.417969 0-8 3.582031-8 8v48h-168v16h232c4.417969 0 8-3.582031 8-8v-352c0-4.417969-3.582031-8-8-8h-35.886719l-.882812-5.257812c-.625-3.777344-1.917969-7.417969-3.824219-10.742188h48.59375c8.835938 0 16 7.164062 16 16v368c0 8.835938-7.164062 16-16 16h-224v16h224c17.671875 0 32-14.328125 32-32v-368c0-17.671875-14.328125-32-32-32zm-56 344h28.6875l-28.6875 28.6875zm40 40h-28.6875l28.6875-28.6875zm-198.558594-336 3.101563-18.632812c1.289062-7.71875 7.96875-13.371094 15.792969-13.367188h27.664062c4.417969 0 8-3.582031 8-8v-16c0-13.253906 10.746094-24 24-24s24 10.746094 24 24v16c0 4.417969 3.582031 8 8 8h27.664062c7.824219-.003906 14.503907 5.648438 15.792969 13.367188l3.101563 18.632812zm0 0" fill="#FFFFFF"/><path d="m248 176h56v16h-56zm0 0" fill="#FFFFFF"/><path d="m320 176h88v16h-88zm0 0" fill="#FFFFFF"/><path d="m248 208h32v16h-32zm0 0" fill="#FFFFFF"/><path d="m296 208h112v16h-112zm0 0" fill="#FFFFFF"/><path d="m248 256h160v16h-160zm0 0" fill="#FFFFFF"/><path d="m248 288h96v16h-96zm0 0" fill="#FFFFFF"/><path d="m360 288h48v16h-48zm0 0" fill="#FFFFFF"/><path d="m216 336h16v16h-16zm0 0" fill="#FFFFFF"/><path d="m248 336h160v16h-160zm0 0" fill="#FFFFFF"/><path d="m248 368h48v16h-48zm0 0" fill="#FFFFFF"/><path d="m312 368h48v16h-48zm0 0" fill="#FFFFFF"/><path d="m256 136h64v16h-64zm0 0" fill="#FFFFFF"/><path d="m336 136h32v16h-32zm0 0" fill="#FFFFFF"/><path d="m304 32h16v16h-16zm0 0" fill="#FFFFFF"/><path d="m8 400h72v45.601562l-14.65625 21.984376c-1.625 2.453124-1.769531 5.601562-.378906 8.195312s4.09375 4.214844 7.035156 4.21875h128c2.949219 0 5.664062-1.625 7.054688-4.226562 1.390624-2.601563 1.238281-5.757813-.398438-8.214844l-14.65625-21.957032v-125.601562h32c4.417969 0 8-3.582031 8-8v-144c-.035156-30.914062-25.085938-55.964844-56-56h-80c-30.914062.035156-55.964844 25.085938-56 56v136h-32c-4.417969 0-8 3.582031-8 8v80c0 4.417969 3.582031 8 8 8zm120 64h-41.046875l7.703125-11.558594c.875-1.316406 1.339844-2.863281 1.34375-4.441406v-48h32zm16 0v-160h-48v-16h80v160c.003906 1.578125.46875 3.125 1.34375 4.441406l7.703125 11.558594zm72-160h-24v-16h24zm-160-136c.027344-22.082031 17.917969-39.972656 40-40h32v128h16v-128h32c22.082031.027344 39.972656 17.917969 40 40v104h-24v-104h-16v104h-80v-104h-16v104h-24zm0 120h24v16h-24zm-40 32h112v10.457031l-56 21-56-21zm0 27.542969 53.191406 19.953125c1.808594.667968 3.792969.667968 5.601563 0l53.207031-19.953125v36.457031h-112zm0 0" fill="#FFFFFF"/><path d="m176 56v-16c0-22.089844-17.910156-40-40-40s-40 17.910156-40 40v16c0 22.089844 17.910156 40 40 40s40-17.910156 40-40zm-64 0v-16c0-13.253906 10.746094-24 24-24s24 10.746094 24 24v16c0 13.253906-10.746094 24-24 24s-24-10.746094-24-24zm0 0" fill="#FFFFFF"/></svg>
