<?xml version="1.0" encoding="utf-8"?>
<!-- Generator: Adobe Illustrator 23.0.2, SVG Export Plug-In . SVG Version: 6.00 Build 0)  -->
<svg version="1.1" id="Слой_1" xmlns="http://www.w3.org/2000/svg" xmlns:xlink="http://www.w3.org/1999/xlink" x="0px" y="0px"
	 viewBox="0 0 512 512" style="enable-background:new 0 0 512 512;" xml:space="preserve">
<style type="text/css">
	.st0{fill:#808080;}
</style>
<path class="st0" d="M505.6,338.8L257.9,281c-1.2-0.3-2.5-0.3-3.8,0l-143.7,33.5c-1.5-3.8-2.9-7.6-4.2-11.4L90.5,308
	c1.1,3.5,2.3,6.9,3.6,10.3L6.4,338.8c-3.7,0.9-6.4,4.2-6.4,8c0,3.8,2.6,7.2,6.4,8L62.7,368L36,421.5c-1-0.1-2-0.3-3-0.3
	c-18.2,0-33,14.8-33,33s14.8,33,33,33s33-14.8,33-33c0-11.3-5.7-21.2-14.3-27.2l27.6-55.1l36.3,8.5v90.3
	c0,32.7,91.8,41.3,140.4,41.3s140.4-8.6,140.4-41.3v-90.3l109.2-25.5c3.7-0.9,6.4-4.2,6.4-8C512,343,509.4,339.7,505.6,338.8z
	 M33,470.7c-9.1,0-16.5-7.4-16.5-16.5c0-9.1,7.4-16.5,16.5-16.5s16.5,7.4,16.5,16.5C49.5,463.3,42.1,470.7,33,470.7z M379.9,470.7
	c0,7.2-43.4,24.8-123.9,24.8s-123.9-17.6-123.9-24.8v-86.5l122,28.5c0.6,0.1,1.3,0.2,1.9,0.2c0.6,0,1.3-0.1,1.9-0.2l89-20.8v70.5
	h16.5v-74.4l16.5-3.9V470.7z M256,396.2l-128-29.9l105-10.5c3.6,9.2,12.5,15.8,23,15.8c13.7,0,24.8-11.1,24.8-24.8
	c0-13.7-11.1-24.8-24.8-24.8c-11,0-20.2,7.2-23.5,17.2L78.2,354.7l-33.6-7.8L256,297.5l211.4,49.3L256,396.2z M247.7,346.8
	c0-4.6,3.7-8.3,8.3-8.3s8.3,3.7,8.3,8.3c0,4.6-3.7,8.3-8.3,8.3S247.7,351.4,247.7,346.8z"/>
<path class="st0" d="M156.9,198.2h16.5c22.8,0,41.3-18.5,41.3-41.3c0-1.5-0.5-2.8-1.1-3.9l0.1-0.1l-36.4-65.5L247.7,65v116.7h-8.3
	c-4.6,0-8.3,3.7-8.3,8.3v24.8h-33c-13.7,0-24.8,11.1-24.8,24.8V256c0,4.6,3.7,8.3,8.3,8.3h148.6c4.6,0,8.3-3.7,8.3-8.3v-16.5
	c0-13.7-11.1-24.8-24.8-24.8h-33v-24.8c0-4.6-3.7-8.3-8.3-8.3h-8.3v-122L329.5,39l-31.2,56.1l0.1,0.1c-0.7,1.2-1.1,2.5-1.1,3.9
	c0,22.8,18.5,41.3,41.3,41.3h16.5c22.8,0,41.3-18.5,41.3-41.3c0-1.5-0.5-2.8-1.1-3.9l0.1-0.1L360.9,33h35.5V16.5h-49.5
	c-0.9,0-1.7,0.1-2.5,0.4l-67.7,21.5c2.6-3.9,4.1-8.6,4.1-13.7C280.8,11.1,269.7,0,256,0c-13.7,0-24.8,11.1-24.8,24.8
	c0,10.5,6.6,19.5,15.9,23.1l-83.2,26.5h-48.3v16.5h35.5l-34.5,62.1l0.1,0.1c-0.7,1.2-1.1,2.5-1.1,3.9
	C115.6,179.7,134.1,198.2,156.9,198.2z M322.1,239.5v8.3H189.9v-8.3c0-4.6,3.7-8.3,8.3-8.3h115.6
	C318.4,231.2,322.1,234.9,322.1,239.5z M247.7,214.7v-16.5h16.5v16.5H247.7z M173.4,181.7h-16.5c-10.8,0-20-6.9-23.4-16.5h63.2
	C193.4,174.8,184.2,181.7,173.4,181.7z M137.9,148.6l27.3-49.1l27.3,49.1H137.9z M346.8,41.8l27.3,49.1h-54.5L346.8,41.8z
	 M355.1,123.9h-16.5c-10.8,0-20-6.9-23.4-16.5h63.2C375,117,365.9,123.9,355.1,123.9z M256,16.5c4.6,0,8.3,3.7,8.3,8.3
	S260.6,33,256,33s-8.3-3.7-8.3-8.3S251.4,16.5,256,16.5z"/>
<path class="st0" d="M408,295.2l16,4.1c1.5-5.7,2.7-11.6,3.5-17.4l-16.3-2.5C410.4,284.8,409.3,290,408,295.2z"/>
<path class="st0" d="M412.9,256c0,2.6-0.1,5.3-0.2,7.8l16.5,0.8c0.1-2.9,0.2-5.8,0.2-8.7c0-2.9-0.1-5.8-0.2-8.7l-16.5,0.8
	C412.8,250.7,412.9,253.4,412.9,256z"/>
<path class="st0" d="M411.1,232.4l16.3-2.5c-0.9-5.8-2-11.6-3.5-17.4l-16,4.1C409.3,222,410.4,227.2,411.1,232.4z"/>
<path class="st0" d="M403,201.1l15.5-5.8c-2.2-5.9-4.8-11.8-7.6-17.4l-14.7,7.5C398.7,190.4,401,195.7,403,201.1z"/>
<path class="st0" d="M373.7,152.2c4.8,5.5,9.3,11.4,13.4,17.5l13.8-9.1c-4.5-6.8-9.5-13.3-14.8-19.3L373.7,152.2z"/>
<path class="st0" d="M120.1,177.6l-14.3-8.3c-3.2,5.6-6.2,11.4-8.8,17.4l15.1,6.6C114.5,187.9,117.2,182.6,120.1,177.6z"/>
<path class="st0" d="M106.3,208.9l-15.8-5c-1.8,5.7-3.3,11.5-4.5,17.4l16.2,3.3C103.3,219.4,104.7,214.1,106.3,208.9z"/>
<path class="st0" d="M99.9,240.3l-16.4-1.6c-0.6,5.7-0.9,11.5-0.9,17.3h16.5C99.1,250.7,99.4,245.5,99.9,240.3z"/>
<path class="st0" d="M83.4,273.3c0.6,5.9,1.5,11.7,2.6,17.4l16.2-3.3c-1-5.1-1.8-10.4-2.4-15.7L83.4,273.3z"/>
</svg>
