<?xml version="1.0" encoding="utf-8"?>
<!-- Generator: Adobe Illustrator 23.0.2, SVG Export Plug-In . SVG Version: 6.00 Build 0)  -->
<svg version="1.1" id="Capa_1" xmlns="http://www.w3.org/2000/svg" xmlns:xlink="http://www.w3.org/1999/xlink" x="0px" y="0px"
	 viewBox="0 0 512 512" style="enable-background:new 0 0 512 512;" xml:space="preserve">
<style type="text/css">
	.st0{fill:#808080;}
</style>
<g>
	<g>
		<path class="st0" d="M361,121V91h30V0H121v91h30v30H0l0.1,391H512c0-11.7,0-370,0-391L361,121L361,121z M151,30h210v31H151L151,30
			L151,30z M331,91v30H181V91H331z M331,361v-30h82.2l68.8-68.8V422H29.8L30,262.3L99.9,331H181v30L331,361L331,361z M211,331v-30
			h90v30H211z M482,482H30l-0.1-30H482L482,482L482,482z M482,219.8L400.8,301H331v-30H181v30h-68.8L30,220l-0.2-69
			c9.2,0,433.5,0,452.2,0L482,219.8L482,219.8z"/>
	</g>
</g>
</svg>
