<?xml version="1.0" encoding="utf-8"?>
<!-- Generator: Adobe Illustrator 23.0.2, SVG Export Plug-In . SVG Version: 6.00 Build 0)  -->
<svg version="1.1" id="Capa_1" xmlns="http://www.w3.org/2000/svg" xmlns:xlink="http://www.w3.org/1999/xlink" x="0px" y="0px"
	 viewBox="0 0 512 512" style="enable-background:new 0 0 512 512;" xml:space="preserve">
<style type="text/css">
	.st0{fill:#808080;}
</style>
<g>
	<path class="st0" d="M424,0H152c-19.6,0-35.8,14.1-39.3,32.7c-16.2,3-29,15.8-32,32C62.1,68.2,48,84.4,48,104v368
		c0,22.1,17.9,40,40,40h272c19.6,0,35.8-14.1,39.3-32.7c16.2-3,29-15.8,32-32c18.6-3.4,32.7-19.7,32.7-39.3V40
		C464,17.9,446.1,0,424,0z M360,496H88c-13.2,0-24-10.8-24-24V104c0-13.2,10.8-24,24-24h31h1h168v88c0,4.4,3.6,8,8,8h88v296
		C384,485.2,373.2,496,360,496z M304,91.3l68.7,68.7H304V91.3z M400,462.6V168c0-0.2-0.1-0.3-0.1-0.5c0-0.7-0.2-1.4-0.4-2.1
		c-0.1-0.3-0.2-0.5-0.3-0.8c-0.4-0.8-0.9-1.7-1.6-2.3l-96-96c-0.7-0.7-1.5-1.2-2.4-1.6c-0.2-0.1-0.5-0.2-0.7-0.3
		c-0.7-0.2-1.4-0.4-2.1-0.4c-0.2,0-0.3-0.1-0.5-0.1H120h-1H97.4c3.3-9.3,12.2-16,22.6-16h240v48c0,4.4,3.6,8,8,8h48v336
		C416,450.4,409.3,459.3,400,462.6z M376,59.3L404.7,88H376V59.3z M448,408c0,10.4-6.7,19.3-16,22.6V96c0-0.2-0.1-0.3-0.1-0.5
		c0-0.7-0.2-1.4-0.4-2.1c-0.1-0.3-0.2-0.5-0.3-0.8c-0.4-0.8-0.9-1.7-1.6-2.3l-56-56c-0.7-0.7-1.5-1.2-2.3-1.6
		c-0.2-0.1-0.5-0.2-0.8-0.3c-0.7-0.2-1.4-0.4-2.1-0.4c-0.2,0-0.3-0.1-0.5-0.1H129.4c3.3-9.3,12.2-16,22.6-16h272
		c13.2,0,24,10.8,24,24V408z"/>
	<rect x="96" y="128" class="st0" width="160" height="16"/>
	<path class="st0" d="M248,392c57.3,0,104-46.7,104-104s-46.7-104-104-104c-57.4,0-104,46.6-104,104c0,20,5.8,38.7,15.7,54.6
		l-74.2,74.2c-9.4,9.4-9.4,24.6,0,33.9c4.5,4.5,10.6,7,17,7s12.4-2.5,17-7l74.2-74.2C209.5,386.3,228.1,392,248,392z M248,200
		c48.5,0,88,39.5,88,88s-39.5,88-88,88c-20.7,0-39.8-7.3-54.9-19.3l-13.8-13.8C167.3,327.8,160,308.7,160,288
		C160,239.5,199.5,200,248,200z M108.1,439.4c-3.1,3.1-8.2,3.1-11.3,0s-3.1-8.2,0-11.3l72.4-72.4c3.5,4,7.3,7.8,11.3,11.3
		L108.1,439.4z"/>
	<path class="st0" d="M248,360c39.7,0,72-32.3,72-72s-32.3-72-72-72s-72,32.3-72,72S208.3,360,248,360z M248,232
		c30.9,0,56,25.1,56,56s-25.1,56-56,56s-56-25.1-56-56S217.1,232,248,232z"/>
	<rect x="96" y="160" class="st0" width="32" height="16"/>
	<rect x="144" y="160" class="st0" width="40" height="16"/>
	<rect x="304" y="392" class="st0" width="56" height="16"/>
	<rect x="336" y="360" class="st0" width="24" height="16"/>
	<rect x="168" y="424" class="st0" width="96" height="16"/>
	<rect x="280" y="424" class="st0" width="80" height="16"/>
	<rect x="96" y="192" class="st0" width="40" height="16"/>
</g>
</svg>
