<?xml version="1.0" encoding="utf-8"?>
<!-- Generator: Adobe Illustrator 23.0.2, SVG Export Plug-In . SVG Version: 6.00 Build 0)  -->
<svg version="1.1" id="Слой_1" xmlns="http://www.w3.org/2000/svg" xmlns:xlink="http://www.w3.org/1999/xlink" x="0px" y="0px"
	 viewBox="0 0 512 512" style="enable-background:new 0 0 512 512;" xml:space="preserve">
<style type="text/css">
	.st0{fill:#808080;}
</style>
<path class="st0" d="M511.1,121.4c-1.8-6.6-6.1-12.1-11.9-15.5c-5.9-3.4-12.9-4.3-19.5-2.6c-6.6,1.8-12.1,6.1-15.5,11.9l-4.3,7.4
	c-4.1-2.3-9.2-1-11.6,3.1l-21.7,36.9l-7.4-4.3c-2-1.1-4.3-1.4-6.5-0.9c-2.2,0.6-4.1,2-5.2,4c-2.3,4.1-0.9,9.3,3.2,11.6l7.4,4.3
	l-72.5,125.7L327.6,351l-8.5,16c-5,8.7-4.5,19.5,1.4,27.6l-19.2,23.5l-5.4-13.5c-2.4-6-8-10.1-14.5-10.6c-6.5-0.5-12.6,2.7-16,8.2
	l-3.1,5.2l-2.9-34.1c-0.7-8.1-6.9-14.6-15-15.5c-8-1-15.7,3.8-18.2,11.5l-21,63c-1.5,4.5,0.9,9.3,5.4,10.8c0.8,0.4,1.7,0.6,2.6,0.7
	c3.7,0,6.9-2.3,8.1-5.8l20.9-63l3,34.6c0.6,7.4,5.9,13.5,13.2,15.2c7.2,1.7,14.7-1.5,18.5-7.9l3.2-5.2l5.3,13.4
	c2.2,5.6,7.3,9.7,13.3,10.6c6,0.9,12-1.5,15.8-6.2l19.9-25.2c2.2,0.6,4.5,0.9,6.7,0.9c9.1,0.1,17.6-4.7,22.3-12.6l8.5-14.2
	l32.5-39.5l73.3-127.2l7.4,4.3c2,1.1,3.4,3,4,5.2c0.6,2.2,0.3,4.5-0.8,6.5l-34.1,59.1c-1.3,1.9-1.7,4.3-1.2,6.6
	c0.5,2.3,1.9,4.2,3.9,5.4c2,1.1,4.3,1.4,6.5,0.9c2.2-0.6,4.1-2,5.2-4l34.1-59.1c3.4-5.9,4.3-12.9,2.6-19.5
	c-1.8-6.6-6.1-12.1-11.9-15.5l-7.4-4.3l21.3-36.9c2.3-4.1,1-9.2-3.1-11.6l4.3-7.4C512,135.2,512.9,128.1,511.1,121.4z M478.9,123.8
	c1.1-2,3-3.4,5.2-4c2.2-0.5,4.5-0.2,6.5,0.9c2,1.1,3.4,3,4,5.2c0.5,2.2,0.2,4.5-0.9,6.5l-4.3,7.4l-14.8-8.5L478.9,123.8z M362.6,362
	l-4.3-2.5l-12.6-7.3l12.1-32.4l26.9,15.5L362.6,362z M337,386.7c-3.6-2.5-4.7-7.3-2.6-11.2l4.3-7.4l14.8,8.5l-4.3,7.3
	c-1.2,2.1-3.2,3.5-5.5,4.1C341.4,388.5,339,388,337,386.7z M394.4,321.3l-29.5-17.1L433.2,186l29.5,17.1L394.4,321.3z M471.2,188.3
	l-29.5-17.1l17.1-29.5l29.5,17.1L471.2,188.3z"/>
<path class="st0" d="M134.6,382.4l-30.2,30.1l-18.1-18.1c-3.3-3.3-8.7-3.3-12,0c-1.6,1.6-2.5,3.8-2.5,6.1c0,2.3,0.9,4.5,2.5,6.1
	l18.1,18.1c3.2,3.2,7.5,5,12,4.9c4.5,0,8.9-1.8,12.1-4.9l30.1-30.2c2.9-3.4,2.7-8.4-0.4-11.6C143.1,379.7,138,379.5,134.6,382.4z"/>
<path class="st0" d="M34.1,405.3c0,40.1,32.5,72.5,72.5,72.5s72.5-32.5,72.5-72.5c0-4.7-3.8-8.5-8.5-8.5s-8.5,3.8-8.5,8.5
	c0,30.6-24.8,55.5-55.5,55.5S51.2,436,51.2,405.3s24.8-55.5,55.5-55.5c12,0,23.7,3.9,33.3,11.1c3.8,2.8,9.1,2.1,11.9-1.7
	c2.8-3.8,2.1-9.1-1.7-11.9c-22-16.5-51.4-19.1-75.9-6.8C49.6,352.8,34.1,377.9,34.1,405.3z"/>
<path class="st0" d="M307.1,68.3c4.7,0,8.5-3.8,8.5-8.5c0-4.7-3.8-8.5-8.5-8.5H85.3c-4.7,0-8.5,3.8-8.5,8.5v34.1
	c0,4.7,3.8,8.5,8.5,8.5h221.8c4.7,0,8.5-3.8,8.5-8.5c0-4.7-3.8-8.5-8.5-8.5H93.9V68.3H307.1z"/>
<path class="st0" d="M110.9,119.5c-4.7,0-8.5,3.8-8.5,8.5c0,4.7,3.8,8.5,8.5,8.5h170.6c4.7,0,8.5-3.8,8.5-8.5c0-4.7-3.8-8.5-8.5-8.5
	H110.9z"/>
<path class="st0" d="M332.7,179.3H145c-4.7,0-8.5,3.8-8.5,8.5c0,4.7,3.8,8.5,8.5,8.5h187.7c4.7,0,8.5-3.8,8.5-8.5
	C341.3,183.1,337.5,179.3,332.7,179.3z"/>
<path class="st0" d="M247.4,239c0-4.7-3.8-8.5-8.5-8.5H68.3c-4.7,0-8.5,3.8-8.5,8.5c0,4.7,3.8,8.5,8.5,8.5h170.6
	C243.6,247.5,247.4,243.7,247.4,239z"/>
<path class="st0" d="M332.7,230.4H273c-4.7,0-8.5,3.8-8.5,8.5c0,4.7,3.8,8.5,8.5,8.5h59.7c4.7,0,8.5-3.8,8.5-8.5
	C341.3,234.3,337.5,230.4,332.7,230.4z"/>
<path class="st0" d="M153.6,290.2c4.7,0,8.5-3.8,8.5-8.5c0-4.7-3.8-8.5-8.5-8.5H68.3c-4.7,0-8.5,3.8-8.5,8.5c0,4.7,3.8,8.5,8.5,8.5
	H153.6z"/>
<path class="st0" d="M187.7,290.2h59.7c4.7,0,8.5-3.8,8.5-8.5c0-4.7-3.8-8.5-8.5-8.5h-59.7c-4.7,0-8.5,3.8-8.5,8.5
	C179.2,286.4,183,290.2,187.7,290.2z"/>
<path class="st0" d="M383.9,392.6c-4.7,0-8.5,3.8-8.5,8.5v85.3c0,4.7-3.8,8.5-8.5,8.5H25.6c-4.7,0-8.5-3.8-8.5-8.5V25.7
	c0-4.7,3.8-8.5,8.5-8.5h341.3c4.7,0,8.5,3.8,8.5,8.5v160.2c0,4.7,3.8,8.5,8.5,8.5c4.7,0,8.5-3.8,8.5-8.5V25.7
	c0-14.1-11.5-25.6-25.6-25.6H25.6C11.5,0.1,0,11.5,0,25.7v460.7C0,500.5,11.5,512,25.6,512h341.3c14.1,0,25.6-11.5,25.6-25.6v-85.3
	C392.5,396.4,388.6,392.6,383.9,392.6z"/>
</svg>
