<?xml version="1.0" encoding="utf-8"?>
<!-- Generator: Adobe Illustrator 23.0.2, SVG Export Plug-In . SVG Version: 6.00 Build 0)  -->
<svg version="1.1" id="Layer_1" xmlns="http://www.w3.org/2000/svg" xmlns:xlink="http://www.w3.org/1999/xlink" x="0px" y="0px"
	 viewBox="0 0 512 512" style="enable-background:new 0 0 512 512;" xml:space="preserve">
<style type="text/css">
	.st0{fill:#808080;}
</style>
<g>
	<g>
		<path class="st0" d="M102.4,1C60.1,1,25.6,35.5,25.6,77.8s34.4,76.8,76.8,76.8s76.8-34.4,76.8-76.8S144.8,1,102.4,1z M102.4,129
			c-28.3,0-51.2-22.9-51.2-51.2s22.9-51.2,51.2-51.2s51.2,22.9,51.2,51.2S130.7,129,102.4,129z"/>
	</g>
</g>
<g>
	<g>
		<path class="st0" d="M384,0c-42.4,0-76.8,34.4-76.8,76.8s34.4,76.8,76.8,76.8s76.8-34.4,76.8-76.8C460.8,34.5,426.4,0,384,0z
			 M384,128c-28.3,0-51.2-22.9-51.2-51.2s22.9-51.2,51.2-51.2s51.2,22.9,51.2,51.2S412.3,128,384,128z"/>
	</g>
</g>
<g>
	<g>
		<path class="st0" d="M486.4,325.1h-3.3l-22.7-124.9c-2.2-12.2-12.8-21-25.2-21H332.8c-5.8,0-11.5,2-16,5.6l-61.1,48.9l-89.4-51.1
			c-3.9-2.2-8.2-3.4-12.7-3.4H51.2c-12.4,0-23,8.8-25.2,21L0.4,341c-1.4,7.5,0.7,15.2,5.5,21c4.9,5.8,12.1,9.2,19.7,9.2H42
			l9.3,117.2c1.1,13.3,12.2,23.6,25.5,23.6H128c13.4,0,24.5-10.3,25.5-23.6l11.2-140.8l6.5-63.4l63.8,21.6c2.7,0.9,5.5,1.4,8.2,1.4
			c4.4,0,8.7-1.4,12.6-3.7c4,2.4,8.4,3.7,13,3.7c3.7,0,7.4-0.8,10.8-2.4l36-16.7l6.2,60.1l11.1,140.2c1.1,13.3,12.2,23.6,25.5,23.6
			h51.2c13.4,0,24.5-10.3,25.5-23.6l4.2-53.2h47c14.1,0,25.6-11.5,25.6-25.6v-58.9C512,336.6,500.5,325.1,486.4,325.1z M243.2,281.6
			L149,249.7l-9.8,95.9L128,486.4H76.8L65.6,345.6h-40l25.6-140.8h38.4v77.9c0,7.1,5.7,12.8,12.8,12.8c7.1,0,12.8-5.7,12.8-12.8
			v-77.9h38.4l89.6,51.2V281.6z M409.6,486.4h-51.2l-11.2-140.8l-9.8-95.9l-68.6,31.9V256l64-51.2h38.4v77.9
			c0,7.1,5.7,12.8,12.8,12.8c7.1,0,12.8-5.7,12.8-12.8v-77.9h38.4l21.9,120.3h-52.6c-14.1,0-25.6,11.5-25.6,25.6v58.9
			c0,14.1,11.5,25.6,25.6,25.6h9.2L409.6,486.4z M486.4,409.6h-81.9v-58.9h81.9V409.6z"/>
	</g>
</g>
</svg>
