<?xml version="1.0" encoding="utf-8"?>
<!-- Generator: Adobe Illustrator 23.0.2, SVG Export Plug-In . SVG Version: 6.00 Build 0)  -->
<svg version="1.1" id="Слой_1" xmlns="http://www.w3.org/2000/svg" xmlns:xlink="http://www.w3.org/1999/xlink" x="0px" y="0px"
	 viewBox="0 0 512 512" style="enable-background:new 0 0 512 512;" xml:space="preserve">
<style type="text/css">
	.st0{fill:#808080;}
</style>
<path class="st0" d="M477.9,51.2H375.5v-8.5c0-23.6-19.1-42.7-42.7-42.7s-42.7,19.1-42.7,42.7v8.5h-85.3v17.1h34.8
	c-2,3.5-3.4,7.4-4.1,11.5l-0.9,5.6h-38.3c-4.7,0-8.5,3.8-8.5,8.5v8.5h44l-1.2,7.1c-0.4,2.5,0.3,5,1.9,6.9s4,3,6.5,3h187.7
	c2.5,0,4.9-1.1,6.5-3c1.6-1.9,2.3-4.4,1.9-6.9l-1.2-7.1h26.9v298.7h-51.2c-4.7,0-8.5,3.8-8.5,8.5v51.2H221.9v17.1h247.5
	c4.7,0,8.5-3.8,8.5-8.5V93.9c0-4.7-3.8-8.5-8.5-8.5h-38.3l-0.9-5.6c-0.7-4-2-7.9-4.1-11.5h51.8c9.4,0,17.1,7.6,17.1,17.1v392.5
	c0,9.4-7.6,17.1-17.1,17.1H238.9V512h238.9c18.9,0,34.1-15.3,34.1-34.1V85.3C512,66.5,496.7,51.2,477.9,51.2z M418.1,418.1h30.6
	l-30.6,30.6V418.1z M460.8,460.8h-30.6l30.6-30.6V460.8z M249,102.4l3.3-19.9c1.4-8.2,8.5-14.3,16.8-14.3h29.5
	c4.7,0,8.5-3.8,8.5-8.5V42.7c0-14.1,11.5-25.6,25.6-25.6s25.6,11.5,25.6,25.6v17.1c0,4.7,3.8,8.5,8.5,8.5h29.5
	c8.3,0,15.5,6,16.8,14.3l3.3,19.9H249z"/>
<path class="st0" d="M264.5,187.7h59.7v17.1h-59.7V187.7z"/>
<path class="st0" d="M341.3,187.7h93.9v17.1h-93.9V187.7z"/>
<path class="st0" d="M264.5,221.9h34.1v17.1h-34.1V221.9z"/>
<path class="st0" d="M315.7,221.9h119.5v17.1H315.7V221.9z"/>
<path class="st0" d="M264.5,273.1h170.7v17.1H264.5V273.1z"/>
<path class="st0" d="M264.5,307.2h102.4v17.1H264.5V307.2z"/>
<path class="st0" d="M384,307.2h51.2v17.1H384V307.2z"/>
<path class="st0" d="M230.4,358.4h17.1v17.1h-17.1V358.4z"/>
<path class="st0" d="M264.5,358.4h170.7v17.1H264.5V358.4z"/>
<path class="st0" d="M264.5,392.5h51.2v17.1h-51.2V392.5z"/>
<path class="st0" d="M332.8,392.5H384v17.1h-51.2V392.5z"/>
<path class="st0" d="M273.1,145.1h68.3v17.1h-68.3V145.1z"/>
<path class="st0" d="M358.4,145.1h34.1v17.1h-34.1V145.1z"/>
<path class="st0" d="M324.3,34.1h17.1v17.1h-17.1V34.1z"/>
<path class="st0" d="M8.5,426.7h76.8v48.6l-15.6,23.5c-1.7,2.6-1.9,6-0.4,8.7c1.5,2.8,4.4,4.5,7.5,4.5h136.5c3.1,0,6-1.7,7.5-4.5
	c1.5-2.8,1.3-6.1-0.4-8.8l-15.6-23.4v-134h34.1c4.7,0,8.5-3.8,8.5-8.5V179.2c0-33-26.8-59.7-59.7-59.7h-85.3
	c-33,0-59.7,26.8-59.7,59.7v145.1H8.5c-4.7,0-8.5,3.8-8.5,8.5v85.3C0,422.8,3.8,426.7,8.5,426.7z M136.5,494.9H92.8l8.2-12.3
	c0.9-1.4,1.4-3.1,1.4-4.7v-51.2h34.1V494.9z M153.6,494.9V324.3h-51.2v-17.1h85.3v170.7c0,1.7,0.5,3.3,1.4,4.7l8.2,12.3H153.6z
	 M230.4,324.3h-25.6v-17.1h25.6V324.3z M59.7,179.2c0-23.6,19.1-42.6,42.7-42.7h34.1v136.5h17.1V136.5h34.1
	c23.6,0,42.6,19.1,42.7,42.7v110.9h-25.6V179.2h-17.1v110.9h-85.3V179.2H85.3v110.9H59.7V179.2z M59.7,307.2h25.6v17.1H59.7V307.2z
	 M17.1,341.3h119.5v11.2l-59.7,22.4l-59.7-22.4V341.3z M17.1,370.7L73.8,392c1.9,0.7,4,0.7,6,0l56.8-21.3v38.9H17.1V370.7z"/>
<path class="st0" d="M187.7,59.7V42.7c0-23.6-19.1-42.7-42.7-42.7s-42.7,19.1-42.7,42.7v17.1c0,23.6,19.1,42.7,42.7,42.7
	S187.7,83.3,187.7,59.7z M119.5,59.7V42.7c0-14.1,11.5-25.6,25.6-25.6c14.1,0,25.6,11.5,25.6,25.6v17.1c0,14.1-11.5,25.6-25.6,25.6
	C130.9,85.3,119.5,73.9,119.5,59.7z"/>
</svg>
