<?xml version="1.0" encoding="iso-8859-1"?>
<!-- Generator: Adobe Illustrator 19.0.0, SVG Export Plug-In . SVG Version: 6.00 Build 0)  -->
<svg version="1.1" id="Layer_1" xmlns="http://www.w3.org/2000/svg" xmlns:xlink="http://www.w3.org/1999/xlink" x="0px" y="0px"
	 viewBox="47.169 141 319.661 512" style="enable-background:new 47.169 141 319.661 512;" xml:space="preserve">
<path style="fill:#FFFFFF;" d="M320.018,187.807C289.818,157.622,249.682,141,207,141c-88.13,0-159.831,71.7-159.831,159.831
	v192.339C47.169,581.3,118.87,653,207,653s159.831-71.7,159.831-159.831V300.831C366.831,258.149,350.208,218.013,320.018,187.807z
	 M339.741,493.169c0,73.194-59.546,132.741-132.741,132.741S74.259,566.364,74.259,493.169V300.831
	c0-73.194,59.546-132.741,132.741-132.741c35.447,0,68.784,13.806,93.863,38.873c25.072,25.084,38.878,58.421,38.878,93.868V493.169
	z"/>
<path style="fill:#FFFFFF;" d="M207.014,224.979c-7.481,0-13.545,6.064-13.545,13.545v31.831c0,7.481,6.064,13.545,13.545,13.545
	s13.545-6.064,13.545-13.545v-31.831C220.559,231.043,214.494,224.979,207.014,224.979z"/>
<path style="fill:#FFFFFF;" d="M207.014,293.099c-7.481,0-13.545,6.064-13.545,13.545v4.007c0,7.481,6.064,13.545,13.545,13.545
	s13.545-6.064,13.545-13.545v-4.007C220.559,299.163,214.494,293.099,207.014,293.099z"/>
</svg>
