<svg width="330" height="520" xmlns="http://www.w3.org/2000/svg">

 <g>
  <title>background</title>
  <rect fill="none" id="canvas_background" height="522" width="332" y="-1" x="-1"/>
 </g>
 <g>
  <title>Layer 1</title>
  <path id="svg_1" fill="#2879ff" d="m278.549006,51.807c-30.2,-30.185 -70.336,-46.807 -113.018,-46.807c-88.13,0 -159.831,71.7 -159.831,159.831l0,192.339c0,88.13 71.701,159.83 159.831,159.83s159.831,-71.7 159.831,-159.831l0,-192.338c0,-42.682 -16.623,-82.818 -46.813,-113.024zm19.723,305.362c0,73.194 -59.546,132.741 -132.741,132.741s-132.741,-59.546 -132.741,-132.741l0,-192.338c0,-73.194 59.546,-132.741 132.741,-132.741c35.447,0 68.784,13.806 93.863,38.873c25.072,25.084 38.878,58.421 38.878,93.868l0,192.338z"/>
  <path id="svg_2" fill="#2879ff" d="m165.545006,88.979c-7.481,0 -13.545,6.064 -13.545,13.545l0,31.831c0,7.481 6.064,13.545 13.545,13.545s13.545,-6.064 13.545,-13.545l0,-31.831c0,-7.481 -6.065,-13.545 -13.545,-13.545z"/>
  <path id="svg_3" fill="#2879ff" d="m165.545006,157.099c-7.481,0 -13.545,6.064 -13.545,13.545l0,4.007c0,7.481 6.064,13.545 13.545,13.545s13.545,-6.064 13.545,-13.545l0,-4.007c0,-7.481 -6.065,-13.545 -13.545,-13.545z"/>
 </g>
</svg>