<svg version="1" xmlns="http://www.w3.org/2000/svg" width="497.333" height="497.333" viewBox="0 0 373.000000 373.000000"><path d="M265.7 4.7c-.9 2.6-2.6 7.7-3.8 11.3-1.1 3.6-2.6 7.5-3.2 8.8-1.8 3.8-1.2 9.4 1.5 15.2 3.6 7.7 4.2 12.6 1.6 14.4-2.3 1.7-5.9.7-9.3-2.4-1.1-1-4.2-2.9-7-4.2-4.4-2.2-6.6-3-12.5-4.5-4.3-1.1-21.3-.8-27.3.4-3.8.8-13 4-20.5 7.2-29.5 12.7-45.7 16.5-53.3 12.5-3.5-1.8-7.2-1-6.7 1.4.3 1.5 5.5 4.6 11.5 6.9 2.1.8 1.3 3.2-30.1 89.3-32.1 88.2-32.2 88.5-34.9 88.3-1.5-.1-2.7.2-2.7.6 0 1.3 14.2 14.9 20.2 19.4 10.2 7.5 24.2 14 35.3 16.2 9.9 2.1 24.8 1.7 37.8-1 4.9-1 15.9-5.5 22.7-9.2 9.4-5.1 21.4-15 26.1-21.5l1.9-2.7-2.7-1.3c-2.4-1.2-4.6-6.6-22.5-55.8-10.9-30-20.5-56.3-21.3-58.5-.7-2.2-5.5-15.3-10.5-29-5.1-13.8-9.7-26.9-10.4-29.1l-1.3-4.1 4.1.9c3.5.8 17.8.4 23.4-.7.9-.1 5.5-.6 10.2-.9 4.7-.4 9.6-.9 11-1.1 1.4-.2 5.7-.7 9.5-1 3.9-.3 9.3-.8 12.1-1.1 2.7-.3 6.8-.1 9 .5 5.9 1.6 11.9 8.7 13.7 16.1.6 2.3 1.1 2.6 5.2 2.5 2.6 0 5.2.3 5.8.7.9.5 1.2 31.2 1.2 121.3 0 66.4-.2 121-.5 121.5-.3.4-10.6.7-23 .6l-22.5-.1-4-7.7c-2.3-4.3-4.5-8.2-5-8.7-.6-.5-7.5-1.1-15.5-1.5-8-.3-20.8-.9-28.5-1.2-20.6-1.1-29-1-28.8.1 0 .5.4 3.5.8 6.5.3 3 .8 6.2 1 7 .2.8.7 3.7 1 6.5.3 2.7.9 7.5 1.4 10.5.6 3 1.3 7.7 1.6 10.5.8 6.4 2.4 8.1 10.4 10.6 9.9 3 14.3 1.8 19.4-5.4 1.1-1.6 1.3-.7 1.2 5.7l-.1 7.6H273V209.6c0-150.8.1-163.8 1.6-167.8 1-2.4 2.1-4.9 2.7-5.5 1.8-2.4.8-7.9-3.8-21.3-2.5-7.4-5-13.9-5.4-14.3-.4-.4-1.5 1.4-2.4 4z"/></svg>