<?xml version="1.0" encoding="utf-8"?>
<!-- Generator: Adobe Illustrator 19.0.0, SVG Export Plug-In . SVG Version: 6.00 Build 0)  -->
<svg version="1.1" id="Слой_1" xmlns="http://www.w3.org/2000/svg" xmlns:xlink="http://www.w3.org/1999/xlink" x="0px" y="0px"
	 viewBox="-534 394.8 205.3 205.3" style="enable-background:new -534 394.8 205.3 205.3;" xml:space="preserve">
<style type="text/css">
	.st0{display:none;fill:#755FA4;stroke:#FFFFFF;stroke-miterlimit:10;}
</style>
<g id="patt">
	<rect id="XMLID_64_" x="-585.3" y="362.1" class="st0" width="298.7" height="282"/>
	<g id="XMLID_35_">
		<path id="XMLID_36_" d="M-383.6,465.7l-15.2-1l-3.8,55.7l15.4,1c12.8,0.9,18.2-13.5,19.1-27.4C-366.4,469-376.9,466.1-383.6,465.7
			z"/>
		<path id="XMLID_74_" d="M-431.3,398.5c-54.7,0-99,44.3-99,99s44.3,99,99,99s99-44.3,99-99S-376.7,398.5-431.3,398.5z
			 M-507.8,500.5l14,1.1c0.4,10.7,7.3,17.2,19.6,18.2c14.6,1.1,22.6-3.2,23.2-10.7c0.5-6.4-3.3-8.9-12.2-11.3l-15.6-4.5
			c-16.4-4.5-24.4-9.5-23.2-24.6c1.3-17,12.9-25.4,34.1-23.7c21.3,1.7,31.7,12.2,30.3,30l-12.4-1c-0.1-10.3-6.6-15.5-19.5-16.5
			c-12-0.9-18.8,2.5-19.4,9.6c-0.6,8,4.6,9.9,15.2,12.9l15.1,4.1c15.6,4.3,21.7,10.3,20.5,25.2c-1.3,16.7-13.8,24.8-37.1,23
			C-497.2,530.7-507.8,520.9-507.8,500.5z M-373.8,556c0,0-29.4,25.3-59.3,25.3c-29.8,0-58.8-24.4-58.8-24.4l-2.5-2.1
			c0,0,31.5,24,61.3,24c29.8,0,60.4-24,60.4-24L-373.8,556z M-386.3,536.2L-419,534l5.7-85l33.4,2.2c25.5,1.7,29.2,26.4,28.1,42.6
			C-353,512-361.4,537.9-386.3,536.2z"/>
	</g>
</g>
</svg>
